<svg width="639" height="186" viewBox="0 0 639 186" fill="none" xmlns="http://www.w3.org/2000/svg">
<path d="M0 46.5L7.58812 54.2742C15.2206 61.7578 30.6187 77.7422 45.7062 89.1492C60.8381 100.992 75.8812 108.258 91.4125 93C106.5 77.7422 121.587 38.5078 137.119 38.7258C152.162 38.5078 167.294 77.7422 182.381 89.1492C197.779 100.992 213 85.0078 228.087 93C243.441 100.992 258.706 131.508 273.794 120.101C289.059 108.258 304.413 54.4922 319.5 58.125C334.721 61.7578 350.119 90.1137 365.206 120.847C380.338 151.872 395.381 151.872 410.912 132.472C428.109 113.904 436.505 106.64 454.997 96.4128C474.505 87.0275 486.794 100.992 501.881 85.2258C517.279 69.75 532.5 23.25 547.587 15.4758C562.941 7.99219 578.206 38.5078 593.294 42.6492C608.559 46.5 623.912 23.25 631.456 11.625L639 0V186H631.412C623.779 186 608.381 186 593.294 186C578.162 186 563.119 186 547.587 186C532.5 186 517.412 186 501.881 186C486.838 186 471.706 186 456.619 186C441.221 186 426 186 410.912 186C395.559 186 380.294 186 365.206 186C349.941 186 334.587 186 319.5 186C304.279 186 288.881 186 273.794 186C258.662 186 243.619 186 228.087 186C213 186 197.912 186 182.381 186C167.338 186 152.206 186 137.119 186C121.721 186 106.5 186 91.4125 186C76.0587 186 60.7937 186 45.7062 186C30.4412 186 15.0875 186 7.54375 186H0V46.5Z" fill="url(#paint0_linear_1_153)"/>
<defs>
<linearGradient id="paint0_linear_1_153" x1="-6.69919" y1="8.99999" x2="639" y2="7.40664" gradientUnits="userSpaceOnUse">
<stop stop-color="#5EC3FF" stop-opacity="0.04"/>
<stop offset="1" stop-color="#FD5DEF" stop-opacity="0.04"/>
</linearGradient>
</defs>
</svg>
